<svg id="Layer_1" data-name="Layer 1" xmlns="http://www.w3.org/2000/svg" viewBox="0 0 1021.51 122.55"><defs><style>.cls-1{fill:#2b2b2b;fill-rule:evenodd;}</style></defs><title>logo</title><path class="cls-1" d="M1114,603c0-3.72-7.14-4-10.25-4-4.46,0-11.55-1.38-15.75,0,.92-.3-2.4,1.9-2.26,1.79L1084,601a8.74,8.74,0,0,1-1.24,2.81c-.43.38-2.76,2.19-2.76,2.19.67,1.67.33,2.33-1,2,.67,1.67.33,2.33-1,2-2.06,4.85,0,8.63,3.5,11.5,2.31,1.88,4.34,2.78,8,4l2.25.75c1.82-.19,2.57.4,2.25,1.75,2.07,1.06,3.41.16,5.5,1a49.27,49.27,0,0,0,8.75,2.25c4.74.9,7,1.4,11.42,2.42l1.16.16q1.67-.35,1.17,1.17h1.5c1.33-.5,1.83-.17,1.5,1h1.5c1.33-.5,1.83-.17,1.5,1,3,.86,3.28,1.52,5.53,2.78,2.8,1.55,6.08,2.39,8,5.13l.83,1.4c0,1.76.89,2.32,2.6,1.69,0,0,2.23,5,2,4v2c-.67,1.67-.33,2.33,1,2v2q1.43-.48,1.29,1.08c.61,2.87.17,6-.26,8.84a64.16,64.16,0,0,1-2.19,9.38,14.6,14.6,0,0,1-1.19,3.36c-.85,1.3-1.73,1.08-2.65,2.34-1.15,1.58-.18,1.79-1.5,3.5-1.16,1.49-2,1.55-3.41,2.93-.67.66-1.27,2.18-2,2.65a2.4,2.4,0,0,1-3,.92q-.33,2.89-3,2v1l-3,.75c-1.6.84-.74.38-2.5,1.25a25,25,0,0,1-4.64,1.71c-5.91,1.77-13.26,1.67-19.39,1.82-5.56.14-8.9-1-13.47-1.53a19.05,19.05,0,0,1-6.5-2c-3.52-2-8.08-3.48-11.54-5.92-.75-.53-1.43-1.94-2-2.65l-1.14-.77q-2.7-.06-1.77-2.66h-2a7.76,7.76,0,0,0-1.1-2.79c-1.31-1.29-1.64-1-2.62-2.5-2.25-3.54-5.15-14.53-1.39-16.89,4.65-2.91,15.16-1.35,18.89,2.41,1,1,1.37,2.62,2.22,3.77,1.33-.33,1.67.33,1,2,1.33-.33,1.67.33,1,2a22.1,22.1,0,0,0,7.38,6c5.7,2.64,15.41,3.46,21.51,2.27a47.61,47.61,0,0,0,5.91-1.86l4.8-1.6q3.35.15,2.4-2.8h2q-.82-2.34,1.5-3,2.51-.86,1.83-3.67L1128,664a17.37,17.37,0,0,1-3-3c-2-3-3.31-3.24-6-5a23.23,23.23,0,0,0-4-2.17l-3-.5c-1.66.4-2.33,0-2-1.33-4.83-1.22-8.21-1.7-12.67-2.67-3-.64-5.61-1.47-8.33-2.33-4.73-1.49-9.58-2.79-14-4.5-1.24-.48-2.42-1.72-3.75-2.5H1069q-.33-2.89-3-2a57,57,0,0,1-3.5-5c-.71-1.08-2.3-2.56-2.5-3-1.12-2.49-.07-1.42-1-4-.8-2.24-.78-1.27-1.25-2.84a31.67,31.67,0,0,1-1.12-9.08,19.72,19.72,0,0,1,.87-4.08c.18-.87.67-5.25,1.33-6.67-.19-1.42.53-2.2,2.17-2.33v-2.25c-.21-1,.29-1.55,1.5-1.75q2.32-.66,1.5-3a45.94,45.94,0,0,1,4.67-4.33L1070,588q2.67.9,3-2c1.41.6,2.24.26,2.5-1s.85-1.45,2-1c1.5-.85,1.34-.45,3-1,2-.68,3.83-1.35,6-2a13.34,13.34,0,0,1,5.25-1c1.75,0,6.25,1,6.25-1,5.35.41,11.52.41,15.5,2,2.45,1,2.92.14,5.5,1v1h3c-.33,1.33.33,1.67,2,1-.33,1.33.33,1.67,2,1l1,2q2.67-.9,3,2,2.34-.82,3,1.5.24,1.71,1.5,1.5c1-.17,1.17.5.5,2l4,3q-.9,2.67,2,3v2a14.76,14.76,0,0,1,3.33,5.33c1.92,5.93-1.15,6.67-6.33,6.67-4.42,0-10.49,1-14-2C1120.66,609.09,1119,604.33,1114,603Z" transform="translate(-128.08 -579)"/><path class="cls-1" d="M209,594c3.45,0,5.29,6.08,6,8a58.12,58.12,0,0,1,2.27,5.69c1,4,1.34,5-2.4,6.07-3.12.89-13.15,1.77-15.87.24-1.09-.61-2.67-3.55-3-4-1.73-2.35-2.53-4.38-5.5-6.5s-3.43-1.78-6.5-2.5c.38.09-3.39-2.06-3-2-5.07-.75-10.12-1.51-14.5,0a38.12,38.12,0,0,0-7.5,3c-2.73,1.67-6.95,4.67-8.08,8.77-2.62,9.53,11.17,15.68,18.41,17.69,5.83,1.62,11.77,1.59,17.63,3.41,6.79,2.1,13.61,4.14,20.3,6.54,3.2,1.15,5.23,2,7.24,4.09,1,1,2.75,2.63,3.65,3.76,1.92,2.43,2.69,7,3.45,9.85a44.67,44.67,0,0,1,1.91,11.74A11.44,11.44,0,0,1,223,672h-1v2c-1-.33-1.33,0-1,1v3c-.15.46-1.69,1.09-2,1.75V682l-2,1c-.74,1.39-.1,1.76-.91,3-.43.67-2.05,1.48-2.66,2.05s-.64,1.59-1.1,2c-1.13,1.06-2.42,1.39-4,2.09A27.61,27.61,0,0,0,205,694c-.07,1.63-.74,2.3-2,2h-2c-9.12,3.43-20.56,4.36-34,5,0-2-9.59-1.68-11.74-2.3a34.6,34.6,0,0,1-7.54-3.73,44,44,0,0,1-14.48-13.12,30.79,30.79,0,0,1-4.22-9.12c-.88-3.24-1.77-6.31.48-8.23,4.32-3.68,12.73-1.16,16.64.89,5.49,2.88,8.37,7.79,13.1,11.6,4.27,3.45,9,4.6,14.39,4.91,3.73.22,8.72.77,12.37.1v-1l4-.67c1.61-.49,1.25-.84,2-1.33l1.5-.5c1.63,0,2.13-.85,1.5-2.5.92-.84,1.53.43,2.65-.93,1.86-2.25,4.67-5.28,4.58-8.45-.06-2.15-2.28-4.68-3.87-6.17a27,27,0,0,0-5.76-4.25c-3-1.7-8.3-3.27-10.6-4.2s-5.39-1.27-8-2v-1l-4.5-.5c-1-.11-4.28-1-4.5-1-2-.47-6.24-2-7.75-2.5h-.75c-1.33.5-1.83.17-1.5-1h-1.5c-1.33.5-1.83.17-1.5-1a3.66,3.66,0,0,1-2-1h-3q-.33-2.89-3-2l-.5-1c-.26-1.26-1.09-1.6-2.5-1-.64-.49-1.76-1.62-3-2.5-2.05-1.46-3.42-3.65-4.74-6.15-2.91-5.49-5.09-15-3.26-21.35-.08.28,1.12-1.24,1.33-2l.34-2c-.4-1.66,0-2.33,1.33-2a22.61,22.61,0,0,1,4.67-8.33A30,30,0,0,1,141.5,590c1.38-.93,2.79-1.15,4.5-2l1-2,4-1c.15-.07,2-2,2-2s3.55-.58,3-.5c-.17-1,.5-1.17,2-.5,1.67.67,2.33.33,2-1a47.68,47.68,0,0,1,6.07-.86c5.4-.51,11.86-1.5,17.23-.3,1,.21.51,1.12.7,1.16,2.9.61,3.68.42,6,1h1c1-.33,1.33,0,1,1,1.42.4,3.58.15,5,1v.5c-.17,1,.5,1.17,2,.5.82.48,2.22,2.61,3.73,3.39C205.87,590,208,590.1,209,594Z" transform="translate(-128.08 -579)"/><path class="cls-1" d="M446,666a101.12,101.12,0,0,1,3-12,57.26,57.26,0,0,0,1-6q2.25.5,1-2.5t1-2.5v-3.75c-.42-1.17-.08-1.58,1-1.25v-4c-.67-1.67-.33-2.33,1-2a111.21,111.21,0,0,0,2.33-13c.39-2.9,1.38-4.38,1.79-6.25.63-2.84.35-5.89.88-8.75-.11.6,2.09-3.62,2-3,.28-2-.28-4,0-6,.32-2.24,1.33-6.93,2.5-8.8-.23-2.3.79-3,3.07-2.2H469c5.66,0,11.32-.08,17,0,0,5.84-2.87,11.33-4,17-.81,4-1.53,5.09-2,8.75a36.77,36.77,0,0,1-2,6.75,37.71,37.71,0,0,0-1.67,6.17A3.47,3.47,0,0,1,475,625c-.27,1.47-.14,4.16-.5,5-1.85,4.25-3.46,12.5-5.4,18.71-2.15,6.84-4.06,13.76-6.2,20.6-1,3.2-1.92,6.57-2.9,9.69v1c.67,1.67.33,2.33-1,2v1.5c.5,1.33.17,1.83-1,1.5-1,3.88-.3,9.42-3.92,12.31-2.57,2.06-18.59,3.23-20.46,1.12-1.43-1.61-1.28-4.72-1.62-6.93a78.6,78.6,0,0,0-2.25-9.25c-.45-1.75,0-3.76-.5-5.5-.92-3.35-1-1.79-1.25-4-.39-3.06-1.14-4.35-1.5-6.75-1.86-12.59-5.06-27.39-8-40.67-.76-3.39-1.6-6.77-2.64-10.08-.29-.93-1.06-4.89-1.85-5.25-1.28-.59-.64.72-1,1-3.16,2.43-2.8,14.39-4,18-1,3-.84,4.58-1,8.33-.16,3.58-1.17,6.64-2,10.14-1.74,7.12-3,14.33-4.42,21.52a203.33,203.33,0,0,1-4.68,20c-.74,2.4-1.27,6.11-2.87,8.06-2.24,2.72-6.49,2.09-9.61,2-5.07-.1-10,.16-11.72-5a65.62,65.62,0,0,1-2.34-8.67c-.14-.65-1.43-2.9-1.33-2.33v-3c.33-1,0-1.33-1-1-1.38-5.81-2.21-11.7-4-16.5a125.29,125.29,0,0,1-4.57-16.07c-1.51-6.8-3.65-11.93-5.29-19.29-.2-.91-1.58-4.91-1.64-5.14,0,0-1-4.71-1.17-5.33-1.06-3.19-1.26-5.83-2.33-9.67-.26-1-.39,1.82-1.33-2.33-.35-1.53-.34-3.14-.67-4.67h-1v-3c-.58-1.63-.23-.57-1-2.5-.68-1.69-1.58-2.94-1.61-5.48-.08-5.41,1.25-5,6.11-5,4.17,0,14.59-1.9,17.5,1,1.54,1.54,1.85,11.09,2.22,13.33l.89,5.34.45,2.66q-.82,3.17,1.44,2.67c.91,3.16.36,6.77,1,10,.71,3.6,1.95,7.2,2.76,10.79.67,3,1.29,6.05,2.07,9.05A40.52,40.52,0,0,1,379,643v5h1c.83,3,.6,4.38,1,8-.17-1.55,1.59,4.15,1,2a5.42,5.42,0,0,0,1,2c.73,2.87.29,6,2.5,4,1.23-1.11,2.07-7.56,2.5-9,3.88-12.9,5.31-30.46,8.42-45.13.8-3.76,2.05-7.44,2.75-11.2.54-3-.05-12.35,1.83-14.67,2.38-2.94,10,.19,14.11.38,4.5.22,10-2.12,12.16,2,1.94,3.67,2.1,10.54,2.93,14.67l2.67,13.33L438.2,641l2.67,13.33L442.2,661C442.89,664.44,442.74,664.91,446,666Z" transform="translate(-128.08 -579)"/><path class="cls-1" d="M907,583h10.5c1.64,0,9.43-1,10.5,0s0,9.4,0,11V688c0,1.59,1,10.1,0,11-.71.65-5.14.28-6.14.32-3.91.18-7.78.38-11.45-1.06-3.22-1.26-1.23-.45-4.16-2.76l-3.5-3A50.49,50.49,0,0,0,896,683c-1-1.7-.82-3.65-2-6-1.33.33-1.67-.33-1-2a2.57,2.57,0,0,1-2.5-3l-.5-2q-2.89-.33-2-3c-1.33.33-1.67-.33-1-2-1.33.33-1.67-.33-1-2-1.33.33-1.67-.33-1-2-1.78-.14-2.45-1-2-2.5s-.22-2.36-2-2.5l-1.33-4a2.83,2.83,0,0,0-2.67-3c.67-1.67.33-2.33-1-2-1-1.65-.13-2.33-1-4a2.57,2.57,0,0,1-2.5-3,2.57,2.57,0,0,0-2.5-3,25.79,25.79,0,0,1-2.67-5L866,628q-2.89-.33-2-3c-1.27.32-1.77-.34-1.5-2s-.23-2.32-1.5-2c-1.24-3.73-.1-4.7-4-6-4.2,23.75-2.44,48.33-2.09,72.31,0,2.58.7,5.86.09,8.35-.8,3.24-1.25,2.93-4.94,3.31a64,64,0,0,1-7.06.17c-3,0-6,.69-7-1.51s0-7.12,0-9.58V595c0-1.56-1-9.85,0-11,1.15-1.3,5.75-1,7.42-1a53.42,53.42,0,0,1,8.58,0c.13,0-.23.82,1,1s2.78-.37,4,0c4.49,1.35,6.78,7.44,8.5,10,1.39,2.07,2.47,4.47,3.75,6.75,2.46,4.38,5.23,8.84,7.75,13.25.72,1.26,1.32,2.49,2,3.5.47.7,1.87,2.24,2,2.5.41.84.11,1.48.5,2,.21.27,1.41,1.83,1.5,2,1,1.76.8,3.66,2,6,.24.47,2.11,2,2.67,3,.79,1.41,1.72,3.36,2.33,4.5.47.88,1.13,2.36,1.75,3.5a1.29,1.29,0,0,0,1.25,1.5c1.26.26,1.6,1.09,1,2.5.52.82.46-.74,1.25,1l.75,3,2,1c1.79,2.7,3.13,5.81,4.67,8.67,0,0,1.88,4.17,2.33,4.33,1.5.55.35-1,2-1l-1-6c1.85,0,1-12.2,1-15V583Z" transform="translate(-128.08 -579)"/><path class="cls-1" d="M706,683c-2,0-.45-.7-1-2v-1c.33-1,0-1.33-1-1a33.9,33.9,0,0,1-1.75-5.37A39.33,39.33,0,0,0,700,667a2.22,2.22,0,0,0-1-1v-3c.33-1,0-1.33-1-1-.57-2-.32-2.15-1-4.25-.42-1.3-.46-.3-1-1.75-.33-.87.35-2.14,0-3l-2-1-.33-2.33c-.46-1.44-.14-3.25-.67-4.67h-1v-2h-1c-.17-1-.33-2-.5-3-1.5-4.49-3-6.94-4.3-12.8-.69-3-1.57-5-2.2-7.2-.11-.41-.65.4-1-1v-3h-1c-1.28-3.72-2.56-8.52-3.75-12.75-.48-1.69-1.75-2.62-2.25-4-.88-2.4-1.46-3.62-2.5-6.75a15.62,15.62,0,0,0-1.13-3.38c-1-1.47-1.55-.73-2.62-1.87-.84-.9-.67-1.78-1.71-2.59a9.12,9.12,0,0,0-3-.85c-5.08-1.1-14-1.78-18.94.07-1.25.47-1.6,1.43-2.11,2.12.09-.11-1.35,1.85-1.5,2,1-.93-2.83,3.67-2.5,3a24.23,24.23,0,0,0-1,4.5c-.64,2.87-1.71,4.24-2.33,6.5-.73,2.67-.79,4-1.67,6a5.38,5.38,0,0,0-1.33,2c-.37,1.28-.36,2.71-.67,4,.47-2-2.85,5.62-1,2,0,.07-1.07,2.78-1,2.5-.4,1.48-1.66,4.2-2,5.25-.19.59.31,1.73,0,2.25-.16.26-1.84,1.74-2,2a19.53,19.53,0,0,0-1,4c-.67,2.45-.42,2.86-1,5,0-.16-2,3.19-2,3-.63,2.41-.36,3.06-1,5.25-.31,1.07-.87.37-1,.75v2.25c.25.83-.08,1.08-1,.75-.66,2.21-1,4.2-2,7a14.49,14.49,0,0,0-1.5,2.5c-.74,2-.61,4.25-1.25,6.25s-.87.43-1.42,2.25c-.47,1.58-.24,3.46-.83,5h-.5c-1-.17-1.17.5-.5,2h-1l-.5,3c-.36.91-.1,2.1-.5,3,0-.12-2,2.15-2,2-.86,2.57-.15,3.89-1,6h-1l-.33,2.33c-.43,1.65.43,4.67-1.67,4.67,1.13,3.39,2.48,3.81,6.33,3.67,1.26,0,3.49-.77,4.67-.67,0,1.14,2.67.29,5,0,2.56-.32,5.55-.83,7.33-3,2.08-2.52,3-6.9,3.67-10a36.72,36.72,0,0,1,2.67-9c1.06-2.26.17-1.57,2.91-2.23a28.65,28.65,0,0,1,4.64-.33q5.58-.35,11.17-.49a194.32,194.32,0,0,1,20.62.35c3.39.28,5.08-.14,6.32,2.7.51,1.15.78,3.25,1.17,4a19.56,19.56,0,0,0,1.5,2v3c-.33,1,0,1.33,1,1,.56,1.71.59,1.67,1,3,.91,3,1.1,5,3.45,7.38,2.19,2.26,4.65,1.2,7.55,1.62v1l3.29,0a20.51,20.51,0,0,0,4.14-.17c3.63-.56,4.94-1,5.51-4.29C708.54,691.11,707.22,686.2,706,683Zm-35-28c-4.85.17-9.64,1.16-14.5,1.29a32.58,32.58,0,0,1-6.91-.48c-1.81-.33-5.57-.35-7.14-1.36-2.06-1.32-1.07-2.17-.45-5a22.42,22.42,0,0,1,1-4.5c.07-.14,1.9-1.84,2-2,.43-.71-.27-2.2,0-3,1,.33,1.33,0,1-1v-3h1v-2q1.51.5,1.17-1.17c.16-1.16.33-2.33.5-3.5a29.79,29.79,0,0,1,1.83-6c1.36-3.32,2.59-9.58,5-12.15,2.66-2.82,4.18,0,5,2.79.63,2.18.87,5,1.5,7.25a20.59,20.59,0,0,0,1,2.75c.62,1.63.81,1.67,1.25,3.12,1,3.2,1.85,6.8,2.75,8.88a49.61,49.61,0,0,1,2,5c.7,2.58.51,3.61,1.44,6.31C671.5,650.43,672.37,651.37,671,655Z" transform="translate(-128.08 -579)"/></svg>